# xmcd CD database file
#
# Track frame offsets:
#	150
#	14143
#	29712
#	48774
#	67718
#	83462
#	98285
#	113721
#	130573
#	146296
#	161405
#	176875
#	193752
#
# Disc length: 2865 seconds
#
# Revision: 1
# Processed by: cddbd v1.5.2PL0 Copyright (c) Steve Scherf et al.
# Submitted via: CDex 1.70beta3
#
DISCID=9b0b2f0d
DTITLE=Da-iCE - EVERY SEASON (vocal ver.)
DYEAR=2016
DGENRE=イケメングループ
TTITLE0=Up to the Stars
TTITLE1=SUPER FICTION
TTITLE2=BILLION DREAMS
TTITLE3=エビバディ
TTITLE4=Cynical Life
TTITLE5=I got your back
TTITLE6=HELLO
TTITLE7=もう一度だけ
TTITLE8=着れないままのコート
TTITLE9=Back To The Future
TTITLE10=Every Season
TTITLE11=Be your man
TTITLE12=MY DEAREST
EXTD=YEAR: 2016
EXTT0=
EXTT1=
EXTT2=
EXTT3=
EXTT4=
EXTT5=
EXTT6=
EXTT7=
EXTT8=
EXTT9=
EXTT10=
EXTT11=
EXTT12=
PLAYORDER=
